<svg width="34" height="34" viewBox="0 0 34 34" fill="none" xmlns="http://www.w3.org/2000/svg">
<g clip-path="url(#clip0_2416_80)">
<path d="M33.9967 27.396C33.9493 26.0808 33.4014 24.8535 32.4541 23.9401C30.5993 22.1516 29.0453 21.1191 27.5635 20.6909C25.5218 20.1008 23.6306 20.6374 21.9428 22.2857C21.9403 22.2882 21.9378 22.2907 21.9352 22.2932L20.1396 24.0754C19.0174 23.4428 16.8353 22.0539 14.4777 19.6963L14.303 19.5217C11.945 17.1638 10.5561 14.9813 9.92414 13.8603L11.7065 12.0647C11.709 12.0621 11.7115 12.0596 11.714 12.057C13.3623 10.3694 13.8989 8.47825 13.3089 6.43633C12.8806 4.9546 11.8482 3.40056 10.0596 1.54577C9.14625 0.598619 7.919 0.0507673 6.60382 0.00335327C5.28785 -0.0441272 4.02507 0.413943 3.04571 1.29303L3.00759 1.3273C2.98993 1.34317 2.97266 1.35957 2.95579 1.37637C1.00617 3.32599 -0.0158188 6.05535 0.000185113 9.26948C0.0274781 14.7295 3.02831 20.9736 8.02731 25.9725C8.96994 26.9152 10.0413 27.848 11.2115 28.7453C11.7935 29.1916 12.6272 29.0816 13.0735 28.4995C13.5199 27.9174 13.4098 27.0837 12.8277 26.6374C11.7496 25.8107 10.7664 24.9551 9.90554 24.0944C5.39018 19.5791 2.68021 14.0321 2.65637 9.25627C2.64408 6.78091 3.3887 4.71481 4.80999 3.27871L4.82015 3.26955C5.7855 2.40301 7.24703 2.45574 8.14764 3.38961C11.5861 6.95549 11.3371 8.63896 9.81775 10.197L7.35581 12.6774C6.96972 13.0664 6.86221 13.6526 7.08513 14.1533C7.14762 14.2937 8.65963 17.6348 12.4252 21.4004L12.6 21.575C16.3651 25.3401 19.7063 26.8521 19.8467 26.9146C20.3473 27.1376 20.9336 27.03 21.3226 26.644L23.803 24.1819C25.3613 22.6625 27.0447 22.4137 30.6104 25.8521C31.5443 26.7526 31.597 28.2142 30.7307 29.1794L30.7212 29.1898C29.2969 30.5996 27.2528 31.3436 24.8044 31.3436C24.7842 31.3436 24.764 31.3436 24.7438 31.3435C22.7867 31.3337 20.5204 30.7972 18.1902 29.7921C17.5168 29.5015 16.7352 29.812 16.4447 30.4856C16.1542 31.1591 16.4646 31.9406 17.1382 32.2311C19.8317 33.393 22.3861 33.988 24.7305 33.9997C24.7554 33.9998 24.7801 33.9998 24.805 33.9998C27.9868 33.9998 30.6891 32.9786 32.6237 31.0441C32.6405 31.0272 32.6568 31.01 32.6727 30.9923L32.7071 30.954C33.5861 29.9747 34.0442 28.7111 33.9967 27.396Z" fill="#FF368A"/>
</g>
<defs>
<clipPath id="clip0_2416_80">
<rect width="34" height="34" fill="white"/>
</clipPath>
</defs>
</svg>
